<svg width="23" height="23" viewBox="0 0 23 23" fill="none" xmlns="http://www.w3.org/2000/svg">
<path d="M21.9683 13.6484L21.9453 13.6299L20.4043 12.4214C20.3067 12.3442 20.2288 12.2449 20.1771 12.1318C20.1253 12.0186 20.1011 11.8948 20.1065 11.7705V11.2061C20.1016 11.0825 20.1261 10.9596 20.1779 10.8474C20.2298 10.7352 20.3076 10.6369 20.4048 10.5605L21.9453 9.35156L21.9683 9.33301C22.2059 9.13509 22.3653 8.85911 22.4181 8.55443C22.4709 8.24974 22.4135 7.93622 22.2564 7.66992L20.1709 4.06152C20.1685 4.05812 20.1664 4.05453 20.1646 4.05078C20.0066 3.78817 19.7616 3.58919 19.4721 3.48839C19.1827 3.3876 18.8671 3.39136 18.5801 3.49902L18.563 3.50537L16.7515 4.23437C16.6372 4.2806 16.5135 4.299 16.3906 4.28805C16.2678 4.2771 16.1493 4.23711 16.0449 4.17139C15.8848 4.07048 15.722 3.9751 15.5567 3.88525C15.4494 3.82711 15.3574 3.74459 15.2879 3.64434C15.2185 3.54409 15.1735 3.42891 15.1568 3.30811L14.8838 1.375L14.878 1.33984C14.8185 1.04043 14.6579 0.770592 14.4229 0.57568C14.188 0.380769 13.8932 0.272664 13.5879 0.269531H9.41213C9.10259 0.270522 8.80333 0.380721 8.56707 0.580715C8.33081 0.780709 8.17272 1.05767 8.12063 1.36279L8.11623 1.39014L7.84426 3.32715C7.82758 3.44761 7.783 3.56251 7.71409 3.66271C7.64517 3.7629 7.55381 3.84563 7.44729 3.9043C7.28144 3.99362 7.1186 4.0884 6.95901 4.18848C6.85484 4.2538 6.73666 4.29348 6.61417 4.30426C6.49169 4.31504 6.3684 4.29661 6.25442 4.25049L4.44143 3.51807L4.42434 3.51123C4.13697 3.40345 3.8209 3.39983 3.53114 3.501C3.24137 3.60217 2.99625 3.80172 2.8384 4.06494L2.83206 4.07568L0.743676 7.68652C0.586269 7.95309 0.528818 8.26696 0.581596 8.57201C0.634375 8.87705 0.793942 9.15337 1.03176 9.35156L1.05471 9.37012L2.59573 10.5786C2.69332 10.6558 2.7712 10.7551 2.82297 10.8682C2.87475 10.9814 2.89895 11.1052 2.89358 11.2295V11.7939C2.89847 11.9175 2.87397 12.0404 2.82211 12.1526C2.77025 12.2648 2.69249 12.3631 2.59524 12.4395L1.05471 13.6484L1.03176 13.667C0.794177 13.8649 0.63474 14.1409 0.581962 14.4456C0.529183 14.7503 0.586505 15.0638 0.743676 15.3301L2.82913 18.9385C2.83153 18.9419 2.83365 18.9455 2.83547 18.9492C2.99349 19.2118 3.2385 19.4108 3.52794 19.5116C3.81738 19.6124 4.13299 19.6086 4.41995 19.501L4.43704 19.4946L6.24709 18.7656C6.36143 18.7194 6.48512 18.701 6.60796 18.7119C6.7308 18.7229 6.84928 18.7629 6.95364 18.8286C7.11379 18.9299 7.27655 19.0252 7.44192 19.1147C7.54913 19.1729 7.64119 19.2554 7.71065 19.3557C7.78011 19.4559 7.82505 19.5711 7.84182 19.6919L8.1133 21.625L8.11916 21.6602C8.17869 21.9601 8.33979 22.2303 8.57532 22.4252C8.81084 22.6202 9.10639 22.728 9.41213 22.7305H13.5879C13.8975 22.7295 14.1967 22.6193 14.433 22.4193C14.6692 22.2193 14.8273 21.9423 14.8794 21.6372L14.8838 21.6099L15.1558 19.6729C15.1727 19.5522 15.2177 19.4371 15.287 19.3369C15.3564 19.2367 15.4482 19.1541 15.5552 19.0957C15.7222 19.0059 15.8853 18.9106 16.0435 18.8115C16.1476 18.7462 16.2658 18.7065 16.3883 18.6957C16.5108 18.685 16.6341 18.7034 16.7481 18.7495L18.5611 19.4795L18.5781 19.4863C18.8655 19.5943 19.1816 19.598 19.4714 19.4968C19.7613 19.3957 20.0064 19.196 20.1641 18.9326C20.166 18.9289 20.1681 18.9253 20.1704 18.9219L22.2559 15.314C22.4136 15.0474 22.4712 14.7335 22.4185 14.4283C22.3658 14.1231 22.2062 13.8467 21.9683 13.6484ZM15.4019 11.6836C15.3663 12.4397 15.1118 13.1693 14.6693 13.7834C14.2269 14.3976 13.6155 14.87 12.9095 15.1432C12.2035 15.4163 11.4334 15.4785 10.6927 15.322C9.95211 15.1656 9.27287 14.7974 8.73764 14.2621C8.20241 13.7268 7.83424 13.0475 7.6779 12.3068C7.52157 11.5662 7.5838 10.7961 7.85704 10.0901C8.13028 9.38417 8.60274 8.77283 9.21698 8.33042C9.83122 7.88802 10.5608 7.63361 11.3169 7.59814C11.8598 7.57424 12.4017 7.66356 12.9081 7.86043C13.4146 8.05729 13.8745 8.35739 14.2587 8.74164C14.6429 9.12589 14.943 9.58588 15.1398 10.0924C15.3366 10.5988 15.4258 11.1407 15.4019 11.6836Z" fill="#B4B4B4"/>
<path d="M21.9683 13.6484L21.9453 13.6299L20.4043 12.4214C20.3067 12.3442 20.2288 12.2449 20.1771 12.1318C20.1253 12.0186 20.1011 11.8948 20.1065 11.7705V11.2061C20.1016 11.0825 20.1261 10.9596 20.1779 10.8474C20.2298 10.7352 20.3076 10.6369 20.4048 10.5605L21.9453 9.35156L21.9683 9.33301C22.2059 9.13509 22.3653 8.85911 22.4181 8.55443C22.4709 8.24974 22.4135 7.93622 22.2564 7.66992L20.1709 4.06152C20.1685 4.05812 20.1664 4.05453 20.1646 4.05078C20.0066 3.78817 19.7616 3.58919 19.4721 3.48839C19.1827 3.3876 18.8671 3.39136 18.5801 3.49902L18.563 3.50537L16.7515 4.23437C16.6372 4.2806 16.5135 4.299 16.3906 4.28805C16.2678 4.2771 16.1493 4.23711 16.0449 4.17139C15.8848 4.07048 15.722 3.9751 15.5567 3.88525C15.4494 3.82711 15.3574 3.74459 15.2879 3.64434C15.2185 3.54409 15.1735 3.42891 15.1568 3.30811L14.8838 1.375L14.878 1.33984C14.8185 1.04043 14.6579 0.770592 14.4229 0.57568C14.188 0.380769 13.8932 0.272664 13.5879 0.269531H9.41213C9.10259 0.270522 8.80333 0.380721 8.56707 0.580715C8.33081 0.780709 8.17272 1.05767 8.12063 1.36279L8.11623 1.39014L7.84426 3.32715C7.82758 3.44761 7.783 3.56251 7.71409 3.66271C7.64517 3.7629 7.55381 3.84563 7.44729 3.9043C7.28144 3.99362 7.1186 4.0884 6.95901 4.18848C6.85484 4.2538 6.73666 4.29348 6.61417 4.30426C6.49169 4.31504 6.3684 4.29661 6.25442 4.25049L4.44143 3.51807L4.42434 3.51123C4.13697 3.40345 3.8209 3.39983 3.53114 3.501C3.24137 3.60217 2.99625 3.80172 2.8384 4.06494L2.83206 4.07568L0.743676 7.68652C0.586269 7.95309 0.528818 8.26696 0.581596 8.57201C0.634375 8.87705 0.793942 9.15337 1.03176 9.35156L1.05471 9.37012L2.59573 10.5786C2.69332 10.6558 2.7712 10.7551 2.82297 10.8682C2.87475 10.9814 2.89895 11.1052 2.89358 11.2295V11.7939C2.89847 11.9175 2.87397 12.0404 2.82211 12.1526C2.77025 12.2648 2.69249 12.3631 2.59524 12.4395L1.05471 13.6484L1.03176 13.667C0.794177 13.8649 0.63474 14.1409 0.581962 14.4456C0.529183 14.7503 0.586505 15.0638 0.743676 15.3301L2.82913 18.9385C2.83153 18.9419 2.83365 18.9455 2.83547 18.9492C2.99349 19.2118 3.2385 19.4108 3.52794 19.5116C3.81738 19.6124 4.13299 19.6086 4.41995 19.501L4.43704 19.4946L6.24709 18.7656C6.36143 18.7194 6.48512 18.701 6.60796 18.7119C6.7308 18.7229 6.84928 18.7629 6.95364 18.8286C7.11379 18.9299 7.27655 19.0252 7.44192 19.1147C7.54913 19.1729 7.64119 19.2554 7.71065 19.3557C7.78011 19.4559 7.82505 19.5711 7.84182 19.6919L8.1133 21.625L8.11916 21.6602C8.17869 21.9601 8.33979 22.2303 8.57532 22.4252C8.81084 22.6202 9.10639 22.728 9.41213 22.7305H13.5879C13.8975 22.7295 14.1967 22.6193 14.433 22.4193C14.6692 22.2193 14.8273 21.9423 14.8794 21.6372L14.8838 21.6099L15.1558 19.6729C15.1727 19.5522 15.2177 19.4371 15.287 19.3369C15.3564 19.2367 15.4482 19.1541 15.5552 19.0957C15.7222 19.0059 15.8853 18.9106 16.0435 18.8115C16.1476 18.7462 16.2658 18.7065 16.3883 18.6957C16.5108 18.685 16.6341 18.7034 16.7481 18.7495L18.5611 19.4795L18.5781 19.4863C18.8655 19.5943 19.1816 19.598 19.4714 19.4968C19.7613 19.3957 20.0064 19.196 20.1641 18.9326C20.166 18.9289 20.1681 18.9253 20.1704 18.9219L22.2559 15.314C22.4136 15.0474 22.4712 14.7335 22.4185 14.4283C22.3658 14.1231 22.2062 13.8467 21.9683 13.6484ZM15.4019 11.6836C15.3663 12.4397 15.1118 13.1693 14.6693 13.7834C14.2269 14.3976 13.6155 14.87 12.9095 15.1432C12.2035 15.4163 11.4334 15.4785 10.6927 15.322C9.95211 15.1656 9.27287 14.7974 8.73764 14.2621C8.20241 13.7268 7.83424 13.0475 7.6779 12.3068C7.52157 11.5662 7.5838 10.7961 7.85704 10.0901C8.13028 9.38417 8.60274 8.77283 9.21698 8.33042C9.83122 7.88802 10.5608 7.63361 11.3169 7.59814C11.8598 7.57424 12.4017 7.66356 12.9081 7.86043C13.4146 8.05729 13.8745 8.35739 14.2587 8.74164C14.6429 9.12589 14.943 9.58588 15.1398 10.0924C15.3366 10.5988 15.4258 11.1407 15.4019 11.6836Z" fill="black" fill-opacity="0.2"/>
<path d="M21.9683 13.6484L21.9453 13.6299L20.4043 12.4214C20.3067 12.3442 20.2288 12.2449 20.1771 12.1318C20.1253 12.0186 20.1011 11.8948 20.1065 11.7705V11.2061C20.1016 11.0825 20.1261 10.9596 20.1779 10.8474C20.2298 10.7352 20.3076 10.6369 20.4048 10.5605L21.9453 9.35156L21.9683 9.33301C22.2059 9.13509 22.3653 8.85911 22.4181 8.55443C22.4709 8.24974 22.4135 7.93622 22.2564 7.66992L20.1709 4.06152C20.1685 4.05812 20.1664 4.05453 20.1646 4.05078C20.0066 3.78817 19.7616 3.58919 19.4721 3.48839C19.1827 3.3876 18.8671 3.39136 18.5801 3.49902L18.563 3.50537L16.7515 4.23437C16.6372 4.2806 16.5135 4.299 16.3906 4.28805C16.2678 4.2771 16.1493 4.23711 16.0449 4.17139C15.8848 4.07048 15.722 3.9751 15.5567 3.88525C15.4494 3.82711 15.3574 3.74459 15.2879 3.64434C15.2185 3.54409 15.1735 3.42891 15.1568 3.30811L14.8838 1.375L14.878 1.33984C14.8185 1.04043 14.6579 0.770592 14.4229 0.57568C14.188 0.380769 13.8932 0.272664 13.5879 0.269531H9.41213C9.10259 0.270522 8.80333 0.380721 8.56707 0.580715C8.33081 0.780709 8.17272 1.05767 8.12063 1.36279L8.11623 1.39014L7.84426 3.32715C7.82758 3.44761 7.783 3.56251 7.71409 3.66271C7.64517 3.7629 7.55381 3.84563 7.44729 3.9043C7.28144 3.99362 7.1186 4.0884 6.95901 4.18848C6.85484 4.2538 6.73666 4.29348 6.61417 4.30426C6.49169 4.31504 6.3684 4.29661 6.25442 4.25049L4.44143 3.51807L4.42434 3.51123C4.13697 3.40345 3.8209 3.39983 3.53114 3.501C3.24137 3.60217 2.99625 3.80172 2.8384 4.06494L2.83206 4.07568L0.743676 7.68652C0.586269 7.95309 0.528818 8.26696 0.581596 8.57201C0.634375 8.87705 0.793942 9.15337 1.03176 9.35156L1.05471 9.37012L2.59573 10.5786C2.69332 10.6558 2.7712 10.7551 2.82297 10.8682C2.87475 10.9814 2.89895 11.1052 2.89358 11.2295V11.7939C2.89847 11.9175 2.87397 12.0404 2.82211 12.1526C2.77025 12.2648 2.69249 12.3631 2.59524 12.4395L1.05471 13.6484L1.03176 13.667C0.794177 13.8649 0.63474 14.1409 0.581962 14.4456C0.529183 14.7503 0.586505 15.0638 0.743676 15.3301L2.82913 18.9385C2.83153 18.9419 2.83365 18.9455 2.83547 18.9492C2.99349 19.2118 3.2385 19.4108 3.52794 19.5116C3.81738 19.6124 4.13299 19.6086 4.41995 19.501L4.43704 19.4946L6.24709 18.7656C6.36143 18.7194 6.48512 18.701 6.60796 18.7119C6.7308 18.7229 6.84928 18.7629 6.95364 18.8286C7.11379 18.9299 7.27655 19.0252 7.44192 19.1147C7.54913 19.1729 7.64119 19.2554 7.71065 19.3557C7.78011 19.4559 7.82505 19.5711 7.84182 19.6919L8.1133 21.625L8.11916 21.6602C8.17869 21.9601 8.33979 22.2303 8.57532 22.4252C8.81084 22.6202 9.10639 22.728 9.41213 22.7305H13.5879C13.8975 22.7295 14.1967 22.6193 14.433 22.4193C14.6692 22.2193 14.8273 21.9423 14.8794 21.6372L14.8838 21.6099L15.1558 19.6729C15.1727 19.5522 15.2177 19.4371 15.287 19.3369C15.3564 19.2367 15.4482 19.1541 15.5552 19.0957C15.7222 19.0059 15.8853 18.9106 16.0435 18.8115C16.1476 18.7462 16.2658 18.7065 16.3883 18.6957C16.5108 18.685 16.6341 18.7034 16.7481 18.7495L18.5611 19.4795L18.5781 19.4863C18.8655 19.5943 19.1816 19.598 19.4714 19.4968C19.7613 19.3957 20.0064 19.196 20.1641 18.9326C20.166 18.9289 20.1681 18.9253 20.1704 18.9219L22.2559 15.314C22.4136 15.0474 22.4712 14.7335 22.4185 14.4283C22.3658 14.1231 22.2062 13.8467 21.9683 13.6484ZM15.4019 11.6836C15.3663 12.4397 15.1118 13.1693 14.6693 13.7834C14.2269 14.3976 13.6155 14.87 12.9095 15.1432C12.2035 15.4163 11.4334 15.4785 10.6927 15.322C9.95211 15.1656 9.27287 14.7974 8.73764 14.2621C8.20241 13.7268 7.83424 13.0475 7.6779 12.3068C7.52157 11.5662 7.5838 10.7961 7.85704 10.0901C8.13028 9.38417 8.60274 8.77283 9.21698 8.33042C9.83122 7.88802 10.5608 7.63361 11.3169 7.59814C11.8598 7.57424 12.4017 7.66356 12.9081 7.86043C13.4146 8.05729 13.8745 8.35739 14.2587 8.74164C14.6429 9.12589 14.943 9.58588 15.1398 10.0924C15.3366 10.5988 15.4258 11.1407 15.4019 11.6836Z" fill="black" fill-opacity="0.2"/>
<path d="M21.9683 13.6484L21.9453 13.6299L20.4043 12.4214C20.3067 12.3442 20.2288 12.2449 20.1771 12.1318C20.1253 12.0186 20.1011 11.8948 20.1065 11.7705V11.2061C20.1016 11.0825 20.1261 10.9596 20.1779 10.8474C20.2298 10.7352 20.3076 10.6369 20.4048 10.5605L21.9453 9.35156L21.9683 9.33301C22.2059 9.13509 22.3653 8.85911 22.4181 8.55443C22.4709 8.24974 22.4135 7.93622 22.2564 7.66992L20.1709 4.06152C20.1685 4.05812 20.1664 4.05453 20.1646 4.05078C20.0066 3.78817 19.7616 3.58919 19.4721 3.48839C19.1827 3.3876 18.8671 3.39136 18.5801 3.49902L18.563 3.50537L16.7515 4.23437C16.6372 4.2806 16.5135 4.299 16.3906 4.28805C16.2678 4.2771 16.1493 4.23711 16.0449 4.17139C15.8848 4.07048 15.722 3.9751 15.5567 3.88525C15.4494 3.82711 15.3574 3.74459 15.2879 3.64434C15.2185 3.54409 15.1735 3.42891 15.1568 3.30811L14.8838 1.375L14.878 1.33984C14.8185 1.04043 14.6579 0.770592 14.4229 0.57568C14.188 0.380769 13.8932 0.272664 13.5879 0.269531H9.41213C9.10259 0.270522 8.80333 0.380721 8.56707 0.580715C8.33081 0.780709 8.17272 1.05767 8.12063 1.36279L8.11623 1.39014L7.84426 3.32715C7.82758 3.44761 7.783 3.56251 7.71409 3.66271C7.64517 3.7629 7.55381 3.84563 7.44729 3.9043C7.28144 3.99362 7.1186 4.0884 6.95901 4.18848C6.85484 4.2538 6.73666 4.29348 6.61417 4.30426C6.49169 4.31504 6.3684 4.29661 6.25442 4.25049L4.44143 3.51807L4.42434 3.51123C4.13697 3.40345 3.8209 3.39983 3.53114 3.501C3.24137 3.60217 2.99625 3.80172 2.8384 4.06494L2.83206 4.07568L0.743676 7.68652C0.586269 7.95309 0.528818 8.26696 0.581596 8.57201C0.634375 8.87705 0.793942 9.15337 1.03176 9.35156L1.05471 9.37012L2.59573 10.5786C2.69332 10.6558 2.7712 10.7551 2.82297 10.8682C2.87475 10.9814 2.89895 11.1052 2.89358 11.2295V11.7939C2.89847 11.9175 2.87397 12.0404 2.82211 12.1526C2.77025 12.2648 2.69249 12.3631 2.59524 12.4395L1.05471 13.6484L1.03176 13.667C0.794177 13.8649 0.63474 14.1409 0.581962 14.4456C0.529183 14.7503 0.586505 15.0638 0.743676 15.3301L2.82913 18.9385C2.83153 18.9419 2.83365 18.9455 2.83547 18.9492C2.99349 19.2118 3.2385 19.4108 3.52794 19.5116C3.81738 19.6124 4.13299 19.6086 4.41995 19.501L4.43704 19.4946L6.24709 18.7656C6.36143 18.7194 6.48512 18.701 6.60796 18.7119C6.7308 18.7229 6.84928 18.7629 6.95364 18.8286C7.11379 18.9299 7.27655 19.0252 7.44192 19.1147C7.54913 19.1729 7.64119 19.2554 7.71065 19.3557C7.78011 19.4559 7.82505 19.5711 7.84182 19.6919L8.1133 21.625L8.11916 21.6602C8.17869 21.9601 8.33979 22.2303 8.57532 22.4252C8.81084 22.6202 9.10639 22.728 9.41213 22.7305H13.5879C13.8975 22.7295 14.1967 22.6193 14.433 22.4193C14.6692 22.2193 14.8273 21.9423 14.8794 21.6372L14.8838 21.6099L15.1558 19.6729C15.1727 19.5522 15.2177 19.4371 15.287 19.3369C15.3564 19.2367 15.4482 19.1541 15.5552 19.0957C15.7222 19.0059 15.8853 18.9106 16.0435 18.8115C16.1476 18.7462 16.2658 18.7065 16.3883 18.6957C16.5108 18.685 16.6341 18.7034 16.7481 18.7495L18.5611 19.4795L18.5781 19.4863C18.8655 19.5943 19.1816 19.598 19.4714 19.4968C19.7613 19.3957 20.0064 19.196 20.1641 18.9326C20.166 18.9289 20.1681 18.9253 20.1704 18.9219L22.2559 15.314C22.4136 15.0474 22.4712 14.7335 22.4185 14.4283C22.3658 14.1231 22.2062 13.8467 21.9683 13.6484ZM15.4019 11.6836C15.3663 12.4397 15.1118 13.1693 14.6693 13.7834C14.2269 14.3976 13.6155 14.87 12.9095 15.1432C12.2035 15.4163 11.4334 15.4785 10.6927 15.322C9.95211 15.1656 9.27287 14.7974 8.73764 14.2621C8.20241 13.7268 7.83424 13.0475 7.6779 12.3068C7.52157 11.5662 7.5838 10.7961 7.85704 10.0901C8.13028 9.38417 8.60274 8.77283 9.21698 8.33042C9.83122 7.88802 10.5608 7.63361 11.3169 7.59814C11.8598 7.57424 12.4017 7.66356 12.9081 7.86043C13.4146 8.05729 13.8745 8.35739 14.2587 8.74164C14.6429 9.12589 14.943 9.58588 15.1398 10.0924C15.3366 10.5988 15.4258 11.1407 15.4019 11.6836Z" stroke="white"/>
</svg>
