<svg width="17" height="18" viewBox="0 0 17 18" fill="none" xmlns="http://www.w3.org/2000/svg">
<path d="M11.8823 3.49411L14.5444 6.15626C14.6566 6.26841 14.6566 6.4514 14.5444 6.56355L8.09861 13.0094L5.35972 13.3134C4.99375 13.3547 4.68385 13.0448 4.72517 12.6788L5.02917 9.93994L11.475 3.49411C11.5872 3.38196 11.7701 3.38196 11.8823 3.49411ZM16.6635 2.81824L15.2233 1.37796C14.7747 0.929351 14.0457 0.929351 13.5941 1.37796L12.5493 2.42275C12.4372 2.53491 12.4372 2.71789 12.5493 2.83005L15.2115 5.4922C15.3236 5.60435 15.5066 5.60435 15.6187 5.4922L16.6635 4.44741C17.1122 3.99584 17.1122 3.26685 16.6635 2.81824ZM11.3333 11.2563V14.2608H1.88889V4.81633H8.67118C8.76562 4.81633 8.85417 4.77796 8.92205 4.71303L10.1026 3.53248C10.3269 3.30817 10.1675 2.92744 9.85174 2.92744H1.41667C0.634549 2.92744 0 3.56199 0 4.34411V14.733C0 15.5151 0.634549 16.1497 1.41667 16.1497H11.8056C12.5877 16.1497 13.2222 15.5151 13.2222 14.733V10.0757C13.2222 9.75991 12.8415 9.60348 12.6172 9.82484L11.4366 11.0054C11.3717 11.0733 11.3333 11.1618 11.3333 11.2563Z" fill="white"/>
</svg>
