<svg width="22" height="19" viewBox="0 0 22 19" fill="none" xmlns="http://www.w3.org/2000/svg">
<path d="M0.0625 15.3594C0.0625 16.0846 0.350585 16.7801 0.86338 17.2929C1.37617 17.8057 2.07167 18.0938 2.79687 18.0938H19.2031C19.9283 18.0938 20.6238 17.8057 21.1366 17.2929C21.6494 16.7801 21.9375 16.0846 21.9375 15.3594V7.83984H0.0625V15.3594ZM3.28516 11.6484C3.28516 11.2599 3.43949 10.8873 3.7142 10.6126C3.98891 10.3379 4.3615 10.1836 4.75 10.1836H7.09375C7.48225 10.1836 7.85484 10.3379 8.12955 10.6126C8.40426 10.8873 8.55859 11.2599 8.55859 11.6484V12.625C8.55859 13.0135 8.40426 13.3861 8.12955 13.6608C7.85484 13.9355 7.48225 14.0898 7.09375 14.0898H4.75C4.3615 14.0898 3.98891 13.9355 3.7142 13.6608C3.43949 13.3861 3.28516 13.0135 3.28516 12.625V11.6484ZM19.2031 0.90625H2.79687C2.07167 0.90625 1.37617 1.19434 0.86338 1.70713C0.350585 2.21992 0.0625 2.91542 0.0625 3.64062V4.91016H21.9375V3.64062C21.9375 2.91542 21.6494 2.21992 21.1366 1.70713C20.6238 1.19434 19.9283 0.90625 19.2031 0.90625Z" fill="#B4B4B4"/>
<path d="M0.0625 15.3594C0.0625 16.0846 0.350585 16.7801 0.86338 17.2929C1.37617 17.8057 2.07167 18.0938 2.79687 18.0938H19.2031C19.9283 18.0938 20.6238 17.8057 21.1366 17.2929C21.6494 16.7801 21.9375 16.0846 21.9375 15.3594V7.83984H0.0625V15.3594ZM3.28516 11.6484C3.28516 11.2599 3.43949 10.8873 3.7142 10.6126C3.98891 10.3379 4.3615 10.1836 4.75 10.1836H7.09375C7.48225 10.1836 7.85484 10.3379 8.12955 10.6126C8.40426 10.8873 8.55859 11.2599 8.55859 11.6484V12.625C8.55859 13.0135 8.40426 13.3861 8.12955 13.6608C7.85484 13.9355 7.48225 14.0898 7.09375 14.0898H4.75C4.3615 14.0898 3.98891 13.9355 3.7142 13.6608C3.43949 13.3861 3.28516 13.0135 3.28516 12.625V11.6484ZM19.2031 0.90625H2.79687C2.07167 0.90625 1.37617 1.19434 0.86338 1.70713C0.350585 2.21992 0.0625 2.91542 0.0625 3.64062V4.91016H21.9375V3.64062C21.9375 2.91542 21.6494 2.21992 21.1366 1.70713C20.6238 1.19434 19.9283 0.90625 19.2031 0.90625Z" fill="black" fill-opacity="0.2"/>
<path d="M0.0625 15.3594C0.0625 16.0846 0.350585 16.7801 0.86338 17.2929C1.37617 17.8057 2.07167 18.0938 2.79687 18.0938H19.2031C19.9283 18.0938 20.6238 17.8057 21.1366 17.2929C21.6494 16.7801 21.9375 16.0846 21.9375 15.3594V7.83984H0.0625V15.3594ZM3.28516 11.6484C3.28516 11.2599 3.43949 10.8873 3.7142 10.6126C3.98891 10.3379 4.3615 10.1836 4.75 10.1836H7.09375C7.48225 10.1836 7.85484 10.3379 8.12955 10.6126C8.40426 10.8873 8.55859 11.2599 8.55859 11.6484V12.625C8.55859 13.0135 8.40426 13.3861 8.12955 13.6608C7.85484 13.9355 7.48225 14.0898 7.09375 14.0898H4.75C4.3615 14.0898 3.98891 13.9355 3.7142 13.6608C3.43949 13.3861 3.28516 13.0135 3.28516 12.625V11.6484ZM19.2031 0.90625H2.79687C2.07167 0.90625 1.37617 1.19434 0.86338 1.70713C0.350585 2.21992 0.0625 2.91542 0.0625 3.64062V4.91016H21.9375V3.64062C21.9375 2.91542 21.6494 2.21992 21.1366 1.70713C20.6238 1.19434 19.9283 0.90625 19.2031 0.90625Z" fill="black" fill-opacity="0.2"/>
<path d="M0.0625 15.3594C0.0625 16.0846 0.350585 16.7801 0.86338 17.2929C1.37617 17.8057 2.07167 18.0938 2.79687 18.0938H19.2031C19.9283 18.0938 20.6238 17.8057 21.1366 17.2929C21.6494 16.7801 21.9375 16.0846 21.9375 15.3594V7.83984H0.0625V15.3594ZM3.28516 11.6484C3.28516 11.2599 3.43949 10.8873 3.7142 10.6126C3.98891 10.3379 4.3615 10.1836 4.75 10.1836H7.09375C7.48225 10.1836 7.85484 10.3379 8.12955 10.6126C8.40426 10.8873 8.55859 11.2599 8.55859 11.6484V12.625C8.55859 13.0135 8.40426 13.3861 8.12955 13.6608C7.85484 13.9355 7.48225 14.0898 7.09375 14.0898H4.75C4.3615 14.0898 3.98891 13.9355 3.7142 13.6608C3.43949 13.3861 3.28516 13.0135 3.28516 12.625V11.6484ZM19.2031 0.90625H2.79687C2.07167 0.90625 1.37617 1.19434 0.86338 1.70713C0.350585 2.21992 0.0625 2.91542 0.0625 3.64062V4.91016H21.9375V3.64062C21.9375 2.91542 21.6494 2.21992 21.1366 1.70713C20.6238 1.19434 19.9283 0.90625 19.2031 0.90625Z" stroke="#B4B4B4"/>
<path d="M0.0625 15.3594C0.0625 16.0846 0.350585 16.7801 0.86338 17.2929C1.37617 17.8057 2.07167 18.0938 2.79687 18.0938H19.2031C19.9283 18.0938 20.6238 17.8057 21.1366 17.2929C21.6494 16.7801 21.9375 16.0846 21.9375 15.3594V7.83984H0.0625V15.3594ZM3.28516 11.6484C3.28516 11.2599 3.43949 10.8873 3.7142 10.6126C3.98891 10.3379 4.3615 10.1836 4.75 10.1836H7.09375C7.48225 10.1836 7.85484 10.3379 8.12955 10.6126C8.40426 10.8873 8.55859 11.2599 8.55859 11.6484V12.625C8.55859 13.0135 8.40426 13.3861 8.12955 13.6608C7.85484 13.9355 7.48225 14.0898 7.09375 14.0898H4.75C4.3615 14.0898 3.98891 13.9355 3.7142 13.6608C3.43949 13.3861 3.28516 13.0135 3.28516 12.625V11.6484ZM19.2031 0.90625H2.79687C2.07167 0.90625 1.37617 1.19434 0.86338 1.70713C0.350585 2.21992 0.0625 2.91542 0.0625 3.64062V4.91016H21.9375V3.64062C21.9375 2.91542 21.6494 2.21992 21.1366 1.70713C20.6238 1.19434 19.9283 0.90625 19.2031 0.90625Z" stroke="black" stroke-opacity="0.2"/>
<path d="M0.0625 15.3594C0.0625 16.0846 0.350585 16.7801 0.86338 17.2929C1.37617 17.8057 2.07167 18.0938 2.79687 18.0938H19.2031C19.9283 18.0938 20.6238 17.8057 21.1366 17.2929C21.6494 16.7801 21.9375 16.0846 21.9375 15.3594V7.83984H0.0625V15.3594ZM3.28516 11.6484C3.28516 11.2599 3.43949 10.8873 3.7142 10.6126C3.98891 10.3379 4.3615 10.1836 4.75 10.1836H7.09375C7.48225 10.1836 7.85484 10.3379 8.12955 10.6126C8.40426 10.8873 8.55859 11.2599 8.55859 11.6484V12.625C8.55859 13.0135 8.40426 13.3861 8.12955 13.6608C7.85484 13.9355 7.48225 14.0898 7.09375 14.0898H4.75C4.3615 14.0898 3.98891 13.9355 3.7142 13.6608C3.43949 13.3861 3.28516 13.0135 3.28516 12.625V11.6484ZM19.2031 0.90625H2.79687C2.07167 0.90625 1.37617 1.19434 0.86338 1.70713C0.350585 2.21992 0.0625 2.91542 0.0625 3.64062V4.91016H21.9375V3.64062C21.9375 2.91542 21.6494 2.21992 21.1366 1.70713C20.6238 1.19434 19.9283 0.90625 19.2031 0.90625Z" stroke="black" stroke-opacity="0.2"/>
</svg>
