<svg width="25" height="21" viewBox="0 0 25 21" fill="none" xmlns="http://www.w3.org/2000/svg">
<path d="M12.5 15.5H4.99995V9.25H2.49995V19.25C2.49995 19.9414 3.05855 20.5 3.74995 20.5H13.75C14.4414 20.5 15 19.9414 15 19.25V9.25H12.5V15.5ZM24.789 6.05469L21.457 1.05469C21.2226 0.707031 20.832 0.5 20.414 0.5H4.58589C4.16792 0.5 3.7773 0.707031 3.54683 1.05469L0.214797 6.05469C-0.33989 6.88672 0.25386 8 1.25386 8H23.75C24.746 8 25.3398 6.88672 24.789 6.05469ZM20 19.875C20 20.2188 20.2812 20.5 20.625 20.5H21.875C22.2187 20.5 22.5 20.2188 22.5 19.875V9.25H20V19.875Z" fill="#B4B4B4"/>
<path d="M12.5 15.5H4.99995V9.25H2.49995V19.25C2.49995 19.9414 3.05855 20.5 3.74995 20.5H13.75C14.4414 20.5 15 19.9414 15 19.25V9.25H12.5V15.5ZM24.789 6.05469L21.457 1.05469C21.2226 0.707031 20.832 0.5 20.414 0.5H4.58589C4.16792 0.5 3.7773 0.707031 3.54683 1.05469L0.214797 6.05469C-0.33989 6.88672 0.25386 8 1.25386 8H23.75C24.746 8 25.3398 6.88672 24.789 6.05469ZM20 19.875C20 20.2188 20.2812 20.5 20.625 20.5H21.875C22.2187 20.5 22.5 20.2188 22.5 19.875V9.25H20V19.875Z" fill="black" fill-opacity="0.2"/>
<path d="M12.5 15.5H4.99995V9.25H2.49995V19.25C2.49995 19.9414 3.05855 20.5 3.74995 20.5H13.75C14.4414 20.5 15 19.9414 15 19.25V9.25H12.5V15.5ZM24.789 6.05469L21.457 1.05469C21.2226 0.707031 20.832 0.5 20.414 0.5H4.58589C4.16792 0.5 3.7773 0.707031 3.54683 1.05469L0.214797 6.05469C-0.33989 6.88672 0.25386 8 1.25386 8H23.75C24.746 8 25.3398 6.88672 24.789 6.05469ZM20 19.875C20 20.2188 20.2812 20.5 20.625 20.5H21.875C22.2187 20.5 22.5 20.2188 22.5 19.875V9.25H20V19.875Z" fill="black" fill-opacity="0.2"/>
<path d="M12.5 15.5H4.99995V9.25H2.49995V19.25C2.49995 19.9414 3.05855 20.5 3.74995 20.5H13.75C14.4414 20.5 15 19.9414 15 19.25V9.25H12.5V15.5ZM24.789 6.05469L21.457 1.05469C21.2226 0.707031 20.832 0.5 20.414 0.5H4.58589C4.16792 0.5 3.7773 0.707031 3.54683 1.05469L0.214797 6.05469C-0.33989 6.88672 0.25386 8 1.25386 8H23.75C24.746 8 25.3398 6.88672 24.789 6.05469ZM20 19.875C20 20.2188 20.2812 20.5 20.625 20.5H21.875C22.2187 20.5 22.5 20.2188 22.5 19.875V9.25H20V19.875Z" stroke="#B4B4B4"/>
<path d="M12.5 15.5H4.99995V9.25H2.49995V19.25C2.49995 19.9414 3.05855 20.5 3.74995 20.5H13.75C14.4414 20.5 15 19.9414 15 19.25V9.25H12.5V15.5ZM24.789 6.05469L21.457 1.05469C21.2226 0.707031 20.832 0.5 20.414 0.5H4.58589C4.16792 0.5 3.7773 0.707031 3.54683 1.05469L0.214797 6.05469C-0.33989 6.88672 0.25386 8 1.25386 8H23.75C24.746 8 25.3398 6.88672 24.789 6.05469ZM20 19.875C20 20.2188 20.2812 20.5 20.625 20.5H21.875C22.2187 20.5 22.5 20.2188 22.5 19.875V9.25H20V19.875Z" stroke="black" stroke-opacity="0.2"/>
<path d="M12.5 15.5H4.99995V9.25H2.49995V19.25C2.49995 19.9414 3.05855 20.5 3.74995 20.5H13.75C14.4414 20.5 15 19.9414 15 19.25V9.25H12.5V15.5ZM24.789 6.05469L21.457 1.05469C21.2226 0.707031 20.832 0.5 20.414 0.5H4.58589C4.16792 0.5 3.7773 0.707031 3.54683 1.05469L0.214797 6.05469C-0.33989 6.88672 0.25386 8 1.25386 8H23.75C24.746 8 25.3398 6.88672 24.789 6.05469ZM20 19.875C20 20.2188 20.2812 20.5 20.625 20.5H21.875C22.2187 20.5 22.5 20.2188 22.5 19.875V9.25H20V19.875Z" stroke="black" stroke-opacity="0.2"/>
</svg>
