<svg width="72" height="78" viewBox="0 0 72 78" fill="none" xmlns="http://www.w3.org/2000/svg">
<path d="M58.8906 30.4062H55.6328V20.6328C55.6328 9.25762 46.3752 0 35 0C23.6248 0 14.3672 9.25762 14.3672 20.6328V30.4062H11.1094C7.51221 30.4062 4.59375 33.3247 4.59375 36.9219V62.9844C4.59375 66.5815 7.51221 69.5 11.1094 69.5H58.8906C62.4878 69.5 65.4062 66.5815 65.4062 62.9844V36.9219C65.4062 33.3247 62.4878 30.4062 58.8906 30.4062ZM44.7734 30.4062H25.2266V20.6328C25.2266 15.2438 29.611 10.8594 35 10.8594C40.389 10.8594 44.7734 15.2438 44.7734 20.6328V30.4062Z" fill="#E23F3F"/>
<g filter="url(#filter0_i_2817_1499)">
<path d="M57.5 52.625C51.2279 52.625 46.125 57.7279 46.125 64C46.125 70.2721 51.2279 75.375 57.5 75.375C63.7721 75.375 68.875 70.2721 68.875 64C68.875 57.7279 63.7721 52.625 57.5 52.625ZM62.2376 67.5L61 68.7376L57.5 65.2376L54 68.7376L52.7624 67.5L56.2624 64L52.7624 60.5L54 59.2624L57.5 62.7624L61 59.2624L62.2376 60.5L58.7376 64L62.2376 67.5Z" fill="#F87878"/>
</g>
<defs>
<filter id="filter0_i_2817_1499" x="43.5" y="50" width="30.3333" height="30.3333" filterUnits="userSpaceOnUse" color-interpolation-filters="sRGB">
<feFlood flood-opacity="0" result="BackgroundImageFix"/>
<feBlend mode="normal" in="SourceGraphic" in2="BackgroundImageFix" result="shape"/>
<feColorMatrix in="SourceAlpha" type="matrix" values="0 0 0 0 0 0 0 0 0 0 0 0 0 0 0 0 0 0 127 0" result="hardAlpha"/>
<feOffset dx="2.33333" dy="2.33333"/>
<feGaussianBlur stdDeviation="5.83333"/>
<feComposite in2="hardAlpha" operator="arithmetic" k2="-1" k3="1"/>
<feColorMatrix type="matrix" values="0 0 0 0 0.671667 0 0 0 0 0.124818 0 0 0 0 0.124818 0 0 0 0.36 0"/>
<feBlend mode="normal" in2="shape" result="effect1_innerShadow_2817_1499"/>
</filter>
</defs>
</svg>
