<svg width="15" height="16" viewBox="0 0 15 16" fill="none" xmlns="http://www.w3.org/2000/svg">
<path d="M14.4549 1.22053L11.408 0.517407C11.077 0.441235 10.7371 0.614086 10.6024 0.924633L9.19611 4.20588C9.07306 4.49299 9.15509 4.82991 9.39825 5.0262L11.1736 6.47932C10.119 8.72639 8.27618 10.5955 5.98224 11.6707L4.52911 9.89534C4.3299 9.65217 3.99591 9.57014 3.7088 9.69319L0.427551 11.0994C0.114075 11.2371 -0.0587769 11.577 0.017395 11.908L0.72052 14.9549C0.793762 15.2713 1.07501 15.4998 1.40607 15.4998C8.909 15.4998 14.9998 9.42073 14.9998 1.90608C14.9998 1.57795 14.7742 1.29377 14.4549 1.22053Z" fill="#343434"/>
</svg>
