<svg width="15" height="13" viewBox="0 0 15 13" fill="none" xmlns="http://www.w3.org/2000/svg">
<path d="M14.4062 0.827393H0.59375C0.452854 0.827393 0.317728 0.883364 0.2181 0.982992C0.118471 1.08262 0.0625 1.21775 0.0625 1.35864V11.9836C0.0625 12.1245 0.118471 12.2597 0.2181 12.3593C0.317728 12.4589 0.452854 12.5149 0.59375 12.5149H14.4062C14.5471 12.5149 14.6823 12.4589 14.7819 12.3593C14.8815 12.2597 14.9375 12.1245 14.9375 11.9836V1.35864C14.9375 1.21775 14.8815 1.08262 14.7819 0.982992C14.6823 0.883364 14.5471 0.827393 14.4062 0.827393ZM7.82606 7.62175C7.73282 7.69423 7.61809 7.73358 7.5 7.73358C7.38191 7.73358 7.26718 7.69423 7.17394 7.62175L1.97334 3.57694L2.62545 2.73823L7.5 6.52937L12.3746 2.73823L13.0267 3.57694L7.82606 7.62175Z" fill="#343434"/>
</svg>
