<svg width="16" height="17" viewBox="0 0 16 17" fill="none" xmlns="http://www.w3.org/2000/svg">
<path d="M15.5594 4.58184L14.1187 6.02246C13.9719 6.16934 13.7344 6.16934 13.5875 6.02246L10.1187 2.55371C9.97187 2.40684 9.97187 2.16934 10.1187 2.02246L11.5594 0.581836C12.1437 -0.00253905 13.0937 -0.00253905 13.6812 0.581836L15.5594 2.45996C16.1469 3.04434 16.1469 3.99434 15.5594 4.58184ZM8.88124 3.25996L0.674992 11.4662L0.0124919 15.2631C-0.0781331 15.7756 0.368742 16.2193 0.881242 16.1318L4.67812 15.4662L12.8844 7.25996C13.0312 7.11309 13.0312 6.87559 12.8844 6.72871L9.41562 3.25996C9.26562 3.11309 9.02812 3.11309 8.88124 3.25996ZM3.87812 10.7631C3.70624 10.5912 3.70624 10.3162 3.87812 10.1443L8.69062 5.33184C8.86249 5.15996 9.13749 5.15996 9.30937 5.33184C9.48124 5.50371 9.48124 5.77871 9.30937 5.95059L4.49687 10.7631C4.32499 10.935 4.04999 10.935 3.87812 10.7631ZM2.74999 13.3912H4.24999V14.5256L2.23437 14.8787L1.26249 13.9068L1.61562 11.8912H2.74999V13.3912Z" fill="#343434"/>
</svg>
