<svg width="17" height="18" viewBox="0 0 17 18" fill="none" xmlns="http://www.w3.org/2000/svg">
<path d="M0.53125 15.9062L16.4688 9L0.53125 2.09375V7.40625L11.1562 9L0.53125 10.5938V15.9062Z" fill="#B4B4B4"/>
<path d="M0.53125 15.9062L16.4688 9L0.53125 2.09375V7.40625L11.1562 9L0.53125 10.5938V15.9062Z" fill="black" fill-opacity="0.2"/>
<path d="M0.53125 15.9062L16.4688 9L0.53125 2.09375V7.40625L11.1562 9L0.53125 10.5938V15.9062Z" fill="black" fill-opacity="0.2"/>
<path d="M0.53125 15.9062L16.4688 9L0.53125 2.09375V7.40625L11.1562 9L0.53125 10.5938V15.9062Z" stroke="#B4B4B4"/>
<path d="M0.53125 15.9062L16.4688 9L0.53125 2.09375V7.40625L11.1562 9L0.53125 10.5938V15.9062Z" stroke="black" stroke-opacity="0.2"/>
<path d="M0.53125 15.9062L16.4688 9L0.53125 2.09375V7.40625L11.1562 9L0.53125 10.5938V15.9062Z" stroke="black" stroke-opacity="0.2"/>
</svg>
