<svg width="15" height="14" viewBox="0 0 15 14" fill="none" xmlns="http://www.w3.org/2000/svg">
<path d="M14.6591 3.6541L13.0788 1.13137C12.9375 0.904912 12.6867 0.766113 12.4189 0.766113H2.5812C2.31334 0.766113 2.06253 0.904912 1.9213 1.13137L0.340942 3.6541C-0.474804 4.95686 0.24841 6.76855 1.77276 6.97553C1.88234 6.99014 1.99435 6.99744 2.10636 6.99744C2.82714 6.99744 3.46513 6.68089 3.90344 6.19144C4.34175 6.68089 4.98218 6.99744 5.70052 6.99744C6.4213 6.99744 7.05929 6.68089 7.4976 6.19144C7.93591 6.68089 8.57633 6.99744 9.29468 6.99744C10.0155 6.99744 10.6534 6.68089 11.0918 6.19144C11.5325 6.68089 12.1705 6.99744 12.8888 6.99744C13.0033 6.99744 13.1129 6.99014 13.2224 6.97553C14.7517 6.77098 15.4773 4.95929 14.6591 3.6541ZM12.8937 7.7791C12.6502 7.7791 12.4091 7.74257 12.1754 7.68657V10.1168H2.82471V7.68657C2.59094 7.74014 2.34987 7.7791 2.10636 7.7791C1.96026 7.7791 1.81172 7.76936 1.66805 7.74988C1.53169 7.7304 1.39776 7.69874 1.2687 7.66222V12.4544C1.2687 12.8854 1.61692 13.2336 2.04792 13.2336H12.957C13.388 13.2336 13.7362 12.8854 13.7362 12.4544V7.66222C13.6047 7.70118 13.4732 7.73283 13.3369 7.74988C13.1883 7.76936 13.0422 7.7791 12.8937 7.7791Z" fill="#343434"/>
</svg>
