<svg width="15" height="13" viewBox="0 0 15 13" fill="none" xmlns="http://www.w3.org/2000/svg">
<path d="M4.3125 6.29517C4.3125 6.15427 4.36847 6.01914 4.4681 5.91952C4.56773 5.81989 4.70285 5.76392 4.84375 5.76392H9.625V2.31079C9.625 1.24829 8.50307 0.451416 7.5 0.451416H2.45312C1.96015 0.451943 1.48752 0.648011 1.13893 0.996597C0.790345 1.34518 0.594277 1.81782 0.59375 2.31079V10.2795C0.594277 10.7725 0.790345 11.2451 1.13893 11.5937C1.48752 11.9423 1.96015 12.1384 2.45312 12.1389H7.76562C8.2586 12.1384 8.73123 11.9423 9.07982 11.5937C9.42841 11.2451 9.62447 10.7725 9.625 10.2795V6.82642H4.84375C4.70285 6.82642 4.56773 6.77045 4.4681 6.67082C4.36847 6.57119 4.3125 6.43606 4.3125 6.29517ZM14.2505 5.91964L11.5943 3.26339C11.4938 3.16797 11.3601 3.11555 11.2216 3.11733C11.083 3.1191 10.9507 3.17492 10.8527 3.27288C10.7548 3.37085 10.6989 3.5032 10.6972 3.64173C10.6954 3.78026 10.7478 3.914 10.8432 4.01444L12.5924 5.76392H9.625V6.82642H12.5924L10.8432 8.57589C10.7918 8.62473 10.7507 8.68337 10.7223 8.74835C10.6939 8.81332 10.6788 8.88333 10.6779 8.95423C10.677 9.02514 10.6903 9.0955 10.717 9.16119C10.7437 9.22687 10.7833 9.28654 10.8335 9.33668C10.8836 9.38682 10.9433 9.42642 11.009 9.45314C11.0747 9.47985 11.145 9.49315 11.2159 9.49224C11.2868 9.49133 11.3568 9.47624 11.4218 9.44785C11.4868 9.41946 11.5454 9.37835 11.5943 9.32694L14.2505 6.67069C14.3501 6.57107 14.406 6.436 14.406 6.29517C14.406 6.15433 14.3501 6.01926 14.2505 5.91964Z" fill="#E23F3F"/>
</svg>
