<svg width="25" height="21" viewBox="0 0 25 21" fill="none" xmlns="http://www.w3.org/2000/svg">
<path d="M12.5 0.77771C5.59635 0.77771 0 6.37406 0 13.2777C0 15.5694 0.61849 17.7161 1.69531 19.5624C1.9388 19.98 2.40278 20.2222 2.88628 20.2222H22.1137C22.5972 20.2222 23.0612 19.98 23.3047 19.5624C24.3815 17.7161 25 15.5694 25 13.2777C25 6.37406 19.4036 0.77771 12.5 0.77771ZM12.5 3.55549C13.1385 3.55549 13.6536 3.99516 13.816 4.58196C13.7678 4.68005 13.7014 4.76556 13.6662 4.87146L13.2661 6.07242C13.0434 6.22389 12.7899 6.33327 12.5004 6.33327C11.7335 6.33327 11.1115 5.7113 11.1115 4.94438C11.1115 4.17745 11.7331 3.55549 12.5 3.55549ZM4.16667 16.0555C3.39974 16.0555 2.77778 15.4335 2.77778 14.6666C2.77778 13.8997 3.39974 13.2777 4.16667 13.2777C4.93359 13.2777 5.55556 13.8997 5.55556 14.6666C5.55556 15.4335 4.93359 16.0555 4.16667 16.0555ZM6.25 9.11104C5.48307 9.11104 4.86111 8.48908 4.86111 7.72216C4.86111 6.95523 5.48307 6.33327 6.25 6.33327C7.01693 6.33327 7.63889 6.95523 7.63889 7.72216C7.63889 8.48908 7.01693 9.11104 6.25 9.11104ZM16.9605 5.96825L14.2986 13.9544C14.8928 14.4639 15.2778 15.2109 15.2778 16.0555C15.2778 16.5642 15.1311 17.0342 14.8924 17.4444H10.1076C9.86892 17.0342 9.72222 16.5642 9.72222 16.0555C9.72222 14.5824 10.8724 13.3893 12.322 13.2955L14.9844 5.30896C15.1654 4.76382 15.7539 4.46478 16.3021 4.65054C16.8477 4.8324 17.1419 5.42268 16.9605 5.96825ZM17.5968 8.45089L18.2704 6.43049C18.421 6.3745 18.5799 6.3337 18.75 6.3337C19.5169 6.3337 20.1389 6.95566 20.1389 7.72259C20.1389 8.48952 19.5169 9.11148 18.75 9.11148C18.2561 9.11104 17.8433 8.83891 17.5968 8.45089ZM20.8333 16.0555C20.0664 16.0555 19.4444 15.4335 19.4444 14.6666C19.4444 13.8997 20.0664 13.2777 20.8333 13.2777C21.6003 13.2777 22.2222 13.8997 22.2222 14.6666C22.2222 15.4335 21.6003 16.0555 20.8333 16.0555Z" fill="#B4B4B4"/>
<path d="M12.5 0.77771C5.59635 0.77771 0 6.37406 0 13.2777C0 15.5694 0.61849 17.7161 1.69531 19.5624C1.9388 19.98 2.40278 20.2222 2.88628 20.2222H22.1137C22.5972 20.2222 23.0612 19.98 23.3047 19.5624C24.3815 17.7161 25 15.5694 25 13.2777C25 6.37406 19.4036 0.77771 12.5 0.77771ZM12.5 3.55549C13.1385 3.55549 13.6536 3.99516 13.816 4.58196C13.7678 4.68005 13.7014 4.76556 13.6662 4.87146L13.2661 6.07242C13.0434 6.22389 12.7899 6.33327 12.5004 6.33327C11.7335 6.33327 11.1115 5.7113 11.1115 4.94438C11.1115 4.17745 11.7331 3.55549 12.5 3.55549ZM4.16667 16.0555C3.39974 16.0555 2.77778 15.4335 2.77778 14.6666C2.77778 13.8997 3.39974 13.2777 4.16667 13.2777C4.93359 13.2777 5.55556 13.8997 5.55556 14.6666C5.55556 15.4335 4.93359 16.0555 4.16667 16.0555ZM6.25 9.11104C5.48307 9.11104 4.86111 8.48908 4.86111 7.72216C4.86111 6.95523 5.48307 6.33327 6.25 6.33327C7.01693 6.33327 7.63889 6.95523 7.63889 7.72216C7.63889 8.48908 7.01693 9.11104 6.25 9.11104ZM16.9605 5.96825L14.2986 13.9544C14.8928 14.4639 15.2778 15.2109 15.2778 16.0555C15.2778 16.5642 15.1311 17.0342 14.8924 17.4444H10.1076C9.86892 17.0342 9.72222 16.5642 9.72222 16.0555C9.72222 14.5824 10.8724 13.3893 12.322 13.2955L14.9844 5.30896C15.1654 4.76382 15.7539 4.46478 16.3021 4.65054C16.8477 4.8324 17.1419 5.42268 16.9605 5.96825ZM17.5968 8.45089L18.2704 6.43049C18.421 6.3745 18.5799 6.3337 18.75 6.3337C19.5169 6.3337 20.1389 6.95566 20.1389 7.72259C20.1389 8.48952 19.5169 9.11148 18.75 9.11148C18.2561 9.11104 17.8433 8.83891 17.5968 8.45089ZM20.8333 16.0555C20.0664 16.0555 19.4444 15.4335 19.4444 14.6666C19.4444 13.8997 20.0664 13.2777 20.8333 13.2777C21.6003 13.2777 22.2222 13.8997 22.2222 14.6666C22.2222 15.4335 21.6003 16.0555 20.8333 16.0555Z" fill="black" fill-opacity="0.2"/>
<path d="M12.5 0.77771C5.59635 0.77771 0 6.37406 0 13.2777C0 15.5694 0.61849 17.7161 1.69531 19.5624C1.9388 19.98 2.40278 20.2222 2.88628 20.2222H22.1137C22.5972 20.2222 23.0612 19.98 23.3047 19.5624C24.3815 17.7161 25 15.5694 25 13.2777C25 6.37406 19.4036 0.77771 12.5 0.77771ZM12.5 3.55549C13.1385 3.55549 13.6536 3.99516 13.816 4.58196C13.7678 4.68005 13.7014 4.76556 13.6662 4.87146L13.2661 6.07242C13.0434 6.22389 12.7899 6.33327 12.5004 6.33327C11.7335 6.33327 11.1115 5.7113 11.1115 4.94438C11.1115 4.17745 11.7331 3.55549 12.5 3.55549ZM4.16667 16.0555C3.39974 16.0555 2.77778 15.4335 2.77778 14.6666C2.77778 13.8997 3.39974 13.2777 4.16667 13.2777C4.93359 13.2777 5.55556 13.8997 5.55556 14.6666C5.55556 15.4335 4.93359 16.0555 4.16667 16.0555ZM6.25 9.11104C5.48307 9.11104 4.86111 8.48908 4.86111 7.72216C4.86111 6.95523 5.48307 6.33327 6.25 6.33327C7.01693 6.33327 7.63889 6.95523 7.63889 7.72216C7.63889 8.48908 7.01693 9.11104 6.25 9.11104ZM16.9605 5.96825L14.2986 13.9544C14.8928 14.4639 15.2778 15.2109 15.2778 16.0555C15.2778 16.5642 15.1311 17.0342 14.8924 17.4444H10.1076C9.86892 17.0342 9.72222 16.5642 9.72222 16.0555C9.72222 14.5824 10.8724 13.3893 12.322 13.2955L14.9844 5.30896C15.1654 4.76382 15.7539 4.46478 16.3021 4.65054C16.8477 4.8324 17.1419 5.42268 16.9605 5.96825ZM17.5968 8.45089L18.2704 6.43049C18.421 6.3745 18.5799 6.3337 18.75 6.3337C19.5169 6.3337 20.1389 6.95566 20.1389 7.72259C20.1389 8.48952 19.5169 9.11148 18.75 9.11148C18.2561 9.11104 17.8433 8.83891 17.5968 8.45089ZM20.8333 16.0555C20.0664 16.0555 19.4444 15.4335 19.4444 14.6666C19.4444 13.8997 20.0664 13.2777 20.8333 13.2777C21.6003 13.2777 22.2222 13.8997 22.2222 14.6666C22.2222 15.4335 21.6003 16.0555 20.8333 16.0555Z" fill="black" fill-opacity="0.2"/>
<path d="M12.5 0.77771C5.59635 0.77771 0 6.37406 0 13.2777C0 15.5694 0.61849 17.7161 1.69531 19.5624C1.9388 19.98 2.40278 20.2222 2.88628 20.2222H22.1137C22.5972 20.2222 23.0612 19.98 23.3047 19.5624C24.3815 17.7161 25 15.5694 25 13.2777C25 6.37406 19.4036 0.77771 12.5 0.77771ZM12.5 3.55549C13.1385 3.55549 13.6536 3.99516 13.816 4.58196C13.7678 4.68005 13.7014 4.76556 13.6662 4.87146L13.2661 6.07242C13.0434 6.22389 12.7899 6.33327 12.5004 6.33327C11.7335 6.33327 11.1115 5.7113 11.1115 4.94438C11.1115 4.17745 11.7331 3.55549 12.5 3.55549ZM4.16667 16.0555C3.39974 16.0555 2.77778 15.4335 2.77778 14.6666C2.77778 13.8997 3.39974 13.2777 4.16667 13.2777C4.93359 13.2777 5.55556 13.8997 5.55556 14.6666C5.55556 15.4335 4.93359 16.0555 4.16667 16.0555ZM6.25 9.11104C5.48307 9.11104 4.86111 8.48908 4.86111 7.72216C4.86111 6.95523 5.48307 6.33327 6.25 6.33327C7.01693 6.33327 7.63889 6.95523 7.63889 7.72216C7.63889 8.48908 7.01693 9.11104 6.25 9.11104ZM16.9605 5.96825L14.2986 13.9544C14.8928 14.4639 15.2778 15.2109 15.2778 16.0555C15.2778 16.5642 15.1311 17.0342 14.8924 17.4444H10.1076C9.86892 17.0342 9.72222 16.5642 9.72222 16.0555C9.72222 14.5824 10.8724 13.3893 12.322 13.2955L14.9844 5.30896C15.1654 4.76382 15.7539 4.46478 16.3021 4.65054C16.8477 4.8324 17.1419 5.42268 16.9605 5.96825ZM17.5968 8.45089L18.2704 6.43049C18.421 6.3745 18.5799 6.3337 18.75 6.3337C19.5169 6.3337 20.1389 6.95566 20.1389 7.72259C20.1389 8.48952 19.5169 9.11148 18.75 9.11148C18.2561 9.11104 17.8433 8.83891 17.5968 8.45089ZM20.8333 16.0555C20.0664 16.0555 19.4444 15.4335 19.4444 14.6666C19.4444 13.8997 20.0664 13.2777 20.8333 13.2777C21.6003 13.2777 22.2222 13.8997 22.2222 14.6666C22.2222 15.4335 21.6003 16.0555 20.8333 16.0555Z" stroke="#B4B4B4"/>
<path d="M12.5 0.77771C5.59635 0.77771 0 6.37406 0 13.2777C0 15.5694 0.61849 17.7161 1.69531 19.5624C1.9388 19.98 2.40278 20.2222 2.88628 20.2222H22.1137C22.5972 20.2222 23.0612 19.98 23.3047 19.5624C24.3815 17.7161 25 15.5694 25 13.2777C25 6.37406 19.4036 0.77771 12.5 0.77771ZM12.5 3.55549C13.1385 3.55549 13.6536 3.99516 13.816 4.58196C13.7678 4.68005 13.7014 4.76556 13.6662 4.87146L13.2661 6.07242C13.0434 6.22389 12.7899 6.33327 12.5004 6.33327C11.7335 6.33327 11.1115 5.7113 11.1115 4.94438C11.1115 4.17745 11.7331 3.55549 12.5 3.55549ZM4.16667 16.0555C3.39974 16.0555 2.77778 15.4335 2.77778 14.6666C2.77778 13.8997 3.39974 13.2777 4.16667 13.2777C4.93359 13.2777 5.55556 13.8997 5.55556 14.6666C5.55556 15.4335 4.93359 16.0555 4.16667 16.0555ZM6.25 9.11104C5.48307 9.11104 4.86111 8.48908 4.86111 7.72216C4.86111 6.95523 5.48307 6.33327 6.25 6.33327C7.01693 6.33327 7.63889 6.95523 7.63889 7.72216C7.63889 8.48908 7.01693 9.11104 6.25 9.11104ZM16.9605 5.96825L14.2986 13.9544C14.8928 14.4639 15.2778 15.2109 15.2778 16.0555C15.2778 16.5642 15.1311 17.0342 14.8924 17.4444H10.1076C9.86892 17.0342 9.72222 16.5642 9.72222 16.0555C9.72222 14.5824 10.8724 13.3893 12.322 13.2955L14.9844 5.30896C15.1654 4.76382 15.7539 4.46478 16.3021 4.65054C16.8477 4.8324 17.1419 5.42268 16.9605 5.96825ZM17.5968 8.45089L18.2704 6.43049C18.421 6.3745 18.5799 6.3337 18.75 6.3337C19.5169 6.3337 20.1389 6.95566 20.1389 7.72259C20.1389 8.48952 19.5169 9.11148 18.75 9.11148C18.2561 9.11104 17.8433 8.83891 17.5968 8.45089ZM20.8333 16.0555C20.0664 16.0555 19.4444 15.4335 19.4444 14.6666C19.4444 13.8997 20.0664 13.2777 20.8333 13.2777C21.6003 13.2777 22.2222 13.8997 22.2222 14.6666C22.2222 15.4335 21.6003 16.0555 20.8333 16.0555Z" stroke="black" stroke-opacity="0.2"/>
<path d="M12.5 0.77771C5.59635 0.77771 0 6.37406 0 13.2777C0 15.5694 0.61849 17.7161 1.69531 19.5624C1.9388 19.98 2.40278 20.2222 2.88628 20.2222H22.1137C22.5972 20.2222 23.0612 19.98 23.3047 19.5624C24.3815 17.7161 25 15.5694 25 13.2777C25 6.37406 19.4036 0.77771 12.5 0.77771ZM12.5 3.55549C13.1385 3.55549 13.6536 3.99516 13.816 4.58196C13.7678 4.68005 13.7014 4.76556 13.6662 4.87146L13.2661 6.07242C13.0434 6.22389 12.7899 6.33327 12.5004 6.33327C11.7335 6.33327 11.1115 5.7113 11.1115 4.94438C11.1115 4.17745 11.7331 3.55549 12.5 3.55549ZM4.16667 16.0555C3.39974 16.0555 2.77778 15.4335 2.77778 14.6666C2.77778 13.8997 3.39974 13.2777 4.16667 13.2777C4.93359 13.2777 5.55556 13.8997 5.55556 14.6666C5.55556 15.4335 4.93359 16.0555 4.16667 16.0555ZM6.25 9.11104C5.48307 9.11104 4.86111 8.48908 4.86111 7.72216C4.86111 6.95523 5.48307 6.33327 6.25 6.33327C7.01693 6.33327 7.63889 6.95523 7.63889 7.72216C7.63889 8.48908 7.01693 9.11104 6.25 9.11104ZM16.9605 5.96825L14.2986 13.9544C14.8928 14.4639 15.2778 15.2109 15.2778 16.0555C15.2778 16.5642 15.1311 17.0342 14.8924 17.4444H10.1076C9.86892 17.0342 9.72222 16.5642 9.72222 16.0555C9.72222 14.5824 10.8724 13.3893 12.322 13.2955L14.9844 5.30896C15.1654 4.76382 15.7539 4.46478 16.3021 4.65054C16.8477 4.8324 17.1419 5.42268 16.9605 5.96825ZM17.5968 8.45089L18.2704 6.43049C18.421 6.3745 18.5799 6.3337 18.75 6.3337C19.5169 6.3337 20.1389 6.95566 20.1389 7.72259C20.1389 8.48952 19.5169 9.11148 18.75 9.11148C18.2561 9.11104 17.8433 8.83891 17.5968 8.45089ZM20.8333 16.0555C20.0664 16.0555 19.4444 15.4335 19.4444 14.6666C19.4444 13.8997 20.0664 13.2777 20.8333 13.2777C21.6003 13.2777 22.2222 13.8997 22.2222 14.6666C22.2222 15.4335 21.6003 16.0555 20.8333 16.0555Z" stroke="black" stroke-opacity="0.2"/>
</svg>
