<svg width="13" height="16" viewBox="0 0 13 16" fill="none" xmlns="http://www.w3.org/2000/svg">
<path d="M12.6121 10.8797C12.557 10.8133 12.5029 10.7469 12.4498 10.6828C11.7193 9.79925 11.2774 9.26601 11.2774 6.76481C11.2774 5.46989 10.9676 4.40739 10.357 3.61052C9.90673 3.02183 9.29812 2.57524 8.49593 2.24521C8.48561 2.23946 8.47639 2.23193 8.4687 2.22296C8.18017 1.25675 7.3906 0.609619 6.50009 0.609619C5.60958 0.609619 4.82034 1.25675 4.53181 2.22196C4.52411 2.2306 4.51502 2.2379 4.50491 2.24354C2.63292 3.01419 1.72316 4.49272 1.72316 6.76382C1.72316 9.26601 1.28189 9.79925 0.550753 10.6818C0.497628 10.7459 0.443507 10.8109 0.388389 10.8787C0.246015 11.0504 0.155809 11.2593 0.128447 11.4806C0.101085 11.702 0.137712 11.9266 0.233995 12.1278C0.438858 12.5594 0.875479 12.8274 1.37386 12.8274H11.63C12.126 12.8274 12.5597 12.5598 12.7652 12.1301C12.8619 11.9289 12.8989 11.7041 12.8717 11.4825C12.8446 11.2609 12.7545 11.0517 12.6121 10.8797ZM6.50009 15.4846C6.97989 15.4842 7.45063 15.354 7.8624 15.1077C8.27417 14.8614 8.6116 14.5083 8.83892 14.0858C8.84963 14.0655 8.85491 14.0428 8.85427 14.0199C8.85363 13.9971 8.84707 13.9747 8.83524 13.9551C8.82341 13.9355 8.80671 13.9193 8.78676 13.908C8.76681 13.8967 8.74428 13.8908 8.72138 13.8909H4.27946C4.25653 13.8908 4.23396 13.8966 4.21397 13.9079C4.19397 13.9191 4.17722 13.9353 4.16535 13.955C4.15348 13.9746 4.1469 13.9969 4.14624 14.0199C4.14558 14.0428 4.15087 14.0655 4.16159 14.0858C4.38888 14.5083 4.72626 14.8614 5.13797 15.1076C5.54967 15.3539 6.02035 15.4842 6.50009 15.4846Z" fill="#343434"/>
</svg>
