<svg width="62" height="63" viewBox="0 0 62 63" fill="none" xmlns="http://www.w3.org/2000/svg">
<path d="M57.1447 26.1627C55.4631 24.9159 53.397 24.0006 51.2157 23.5069C50.8576 23.4263 50.5297 23.2455 50.2704 22.9856C50.0112 22.7257 49.8312 22.3974 49.7515 22.0391C48.8146 17.865 46.7978 14.2855 43.8333 11.5732C40.3872 8.41536 35.8299 6.67847 31 6.67847C26.7539 6.67847 22.832 8.00936 19.6645 10.5282C17.5178 12.238 15.7899 14.4154 14.6124 16.8944C14.4848 17.1657 14.2954 17.4033 14.0595 17.5883C13.8236 17.7733 13.5477 17.9005 13.2539 17.9599C10.0408 18.6085 7.13992 19.9863 4.92496 21.9382C1.86678 24.6408 0.25 28.2335 0.25 32.3355C0.25 36.4819 1.9905 40.2632 5.14958 42.9971C8.16692 45.6024 12.2293 47.0378 16.5859 47.0378H29.0781V28.6155L24.671 33.0226C24.487 33.2065 24.2676 33.3512 24.026 33.4479C23.7845 33.5445 23.5258 33.5911 23.2657 33.5849C23.0055 33.5786 22.7494 33.5195 22.5128 33.4113C22.2762 33.3031 22.064 33.148 21.8891 32.9553C21.1924 32.1902 21.2597 30.9974 21.9912 30.2659L29.6415 22.6168C30.0019 22.2567 30.4905 22.0544 31 22.0544C31.5095 22.0544 31.9981 22.2567 32.3585 22.6168L40.0088 30.2635C40.7631 31.019 40.8064 32.2574 40.0556 33.0154C39.8775 33.1952 39.6656 33.3382 39.4322 33.4359C39.1987 33.5337 38.9481 33.5844 38.695 33.585C38.4419 33.5857 38.1911 33.5364 37.9571 33.4398C37.7231 33.3433 37.5104 33.2015 37.3314 33.0226L32.9219 28.6155V47.0378H47.8164C51.5809 47.0378 55.0126 45.9808 57.4798 44.0625C60.2738 41.8884 61.75 38.7774 61.75 35.0742C61.75 31.4779 60.1572 28.3945 57.1447 26.1627ZM29.0781 54.7758C29.0781 55.2855 29.2806 55.7743 29.641 56.1348C30.0015 56.4952 30.4903 56.6977 31 56.6977C31.5097 56.6977 31.9986 56.4952 32.359 56.1348C32.7194 55.7743 32.9219 55.2855 32.9219 54.7758V47.0378H29.0781V54.7758Z" fill="#B4B4B4"/>
<path d="M57.1447 26.1627C55.4631 24.9159 53.397 24.0006 51.2157 23.5069C50.8576 23.4263 50.5297 23.2455 50.2704 22.9856C50.0112 22.7257 49.8312 22.3974 49.7515 22.0391C48.8146 17.865 46.7978 14.2855 43.8333 11.5732C40.3872 8.41536 35.8299 6.67847 31 6.67847C26.7539 6.67847 22.832 8.00936 19.6645 10.5282C17.5178 12.238 15.7899 14.4154 14.6124 16.8944C14.4848 17.1657 14.2954 17.4033 14.0595 17.5883C13.8236 17.7733 13.5477 17.9005 13.2539 17.9599C10.0408 18.6085 7.13992 19.9863 4.92496 21.9382C1.86678 24.6408 0.25 28.2335 0.25 32.3355C0.25 36.4819 1.9905 40.2632 5.14958 42.9971C8.16692 45.6024 12.2293 47.0378 16.5859 47.0378H29.0781V28.6155L24.671 33.0226C24.487 33.2065 24.2676 33.3512 24.026 33.4479C23.7845 33.5445 23.5258 33.5911 23.2657 33.5849C23.0055 33.5786 22.7494 33.5195 22.5128 33.4113C22.2762 33.3031 22.064 33.148 21.8891 32.9553C21.1924 32.1902 21.2597 30.9974 21.9912 30.2659L29.6415 22.6168C30.0019 22.2567 30.4905 22.0544 31 22.0544C31.5095 22.0544 31.9981 22.2567 32.3585 22.6168L40.0088 30.2635C40.7631 31.019 40.8064 32.2574 40.0556 33.0154C39.8775 33.1952 39.6656 33.3382 39.4322 33.4359C39.1987 33.5337 38.9481 33.5844 38.695 33.585C38.4419 33.5857 38.1911 33.5364 37.9571 33.4398C37.7231 33.3433 37.5104 33.2015 37.3314 33.0226L32.9219 28.6155V47.0378H47.8164C51.5809 47.0378 55.0126 45.9808 57.4798 44.0625C60.2738 41.8884 61.75 38.7774 61.75 35.0742C61.75 31.4779 60.1572 28.3945 57.1447 26.1627ZM29.0781 54.7758C29.0781 55.2855 29.2806 55.7743 29.641 56.1348C30.0015 56.4952 30.4903 56.6977 31 56.6977C31.5097 56.6977 31.9986 56.4952 32.359 56.1348C32.7194 55.7743 32.9219 55.2855 32.9219 54.7758V47.0378H29.0781V54.7758Z" fill="black" fill-opacity="0.2"/>
<path d="M57.1447 26.1627C55.4631 24.9159 53.397 24.0006 51.2157 23.5069C50.8576 23.4263 50.5297 23.2455 50.2704 22.9856C50.0112 22.7257 49.8312 22.3974 49.7515 22.0391C48.8146 17.865 46.7978 14.2855 43.8333 11.5732C40.3872 8.41536 35.8299 6.67847 31 6.67847C26.7539 6.67847 22.832 8.00936 19.6645 10.5282C17.5178 12.238 15.7899 14.4154 14.6124 16.8944C14.4848 17.1657 14.2954 17.4033 14.0595 17.5883C13.8236 17.7733 13.5477 17.9005 13.2539 17.9599C10.0408 18.6085 7.13992 19.9863 4.92496 21.9382C1.86678 24.6408 0.25 28.2335 0.25 32.3355C0.25 36.4819 1.9905 40.2632 5.14958 42.9971C8.16692 45.6024 12.2293 47.0378 16.5859 47.0378H29.0781V28.6155L24.671 33.0226C24.487 33.2065 24.2676 33.3512 24.026 33.4479C23.7845 33.5445 23.5258 33.5911 23.2657 33.5849C23.0055 33.5786 22.7494 33.5195 22.5128 33.4113C22.2762 33.3031 22.064 33.148 21.8891 32.9553C21.1924 32.1902 21.2597 30.9974 21.9912 30.2659L29.6415 22.6168C30.0019 22.2567 30.4905 22.0544 31 22.0544C31.5095 22.0544 31.9981 22.2567 32.3585 22.6168L40.0088 30.2635C40.7631 31.019 40.8064 32.2574 40.0556 33.0154C39.8775 33.1952 39.6656 33.3382 39.4322 33.4359C39.1987 33.5337 38.9481 33.5844 38.695 33.585C38.4419 33.5857 38.1911 33.5364 37.9571 33.4398C37.7231 33.3433 37.5104 33.2015 37.3314 33.0226L32.9219 28.6155V47.0378H47.8164C51.5809 47.0378 55.0126 45.9808 57.4798 44.0625C60.2738 41.8884 61.75 38.7774 61.75 35.0742C61.75 31.4779 60.1572 28.3945 57.1447 26.1627ZM29.0781 54.7758C29.0781 55.2855 29.2806 55.7743 29.641 56.1348C30.0015 56.4952 30.4903 56.6977 31 56.6977C31.5097 56.6977 31.9986 56.4952 32.359 56.1348C32.7194 55.7743 32.9219 55.2855 32.9219 54.7758V47.0378H29.0781V54.7758Z" fill="black" fill-opacity="0.2"/>
</svg>
