<svg width="11" height="14" viewBox="0 0 11 14" fill="none" xmlns="http://www.w3.org/2000/svg">
<path d="M5.5 0.4375C2.91221 0.4375 0.8125 2.32744 0.8125 4.65625C0.8125 8.40625 5.5 13.5625 5.5 13.5625C5.5 13.5625 10.1875 8.40625 10.1875 4.65625C10.1875 2.32744 8.08779 0.4375 5.5 0.4375ZM5.5 7C5.12916 7 4.76665 6.89003 4.45831 6.684C4.14996 6.47798 3.90964 6.18514 3.76773 5.84253C3.62581 5.49992 3.58868 5.12292 3.66103 4.75921C3.73337 4.39549 3.91195 4.0614 4.17417 3.79917C4.4364 3.53695 4.77049 3.35837 5.13421 3.28603C5.49792 3.21368 5.87492 3.25081 6.21753 3.39273C6.56014 3.53464 6.85298 3.77496 7.05901 4.08331C7.26503 4.39165 7.375 4.75416 7.375 5.125C7.37446 5.62211 7.17674 6.09871 6.82523 6.45023C6.47371 6.80174 5.99711 6.99946 5.5 7Z" fill="#343434"/>
</svg>
